ply
format ascii 1.0
element vertex 5
property float x
property float y
property float z
property uchar red
property uchar green
property uchar blue
element edge 4
property int vertex1
property int vertex2
end_header
0.0 0.0 0.0 255 0 0
0.39202560702069994 0.11952473830963291 -0.912156653416542 0 0 255
0.7642501607968468 0.24981605775048055 -1.831108803228768 0 0 255
1.1596897333885727 0.368714843243427 -2.741872561421185 0 0 255
1.557028944106018 0.4887597409785722 -3.6516586759306318 0 0 0
0 1
1 2
2 3
3 4
